<?xml version="1.0" encoding="UTF-8"?>
<!DOCTYPE svg>
<svg fill="none" viewBox="0 0 64 64" xmlns="http://www.w3.org/2000/svg">
    <style>
        path.icon-background {
            fill: #00000000;
        }

        path.icon-foreground {
            fill: #ffffff;
        }

        path.icon-stroke {
            stroke: #ffffff;
        }

        @media (prefers-color-scheme: light) {
            path.icon-foreground {
                fill: #000000;
            }

            path.icon-stroke {
                stroke: #000000;
            }
        }
    </style>
    <g clip-path="url(#prefix__a)">
        <path
            d="M44 0H20C8.954 0 0 8.954 0 20v24c0 11.046 8.954 20 20 20h24c11.046 0 20-8.954 20-20V20C64 8.954 55.046 0 44 0z"
            class="icon-background" />
        <path
            d="M23.399 20.276L45.883 15.6l-.062-4.157-22.617 5.037.194 3.796zM18.45 51.003a5.144 5.144 0 100-10.288 5.144 5.144 0 000 10.288zM41.072 46.044a5.144 5.144 0 100-10.288 5.144 5.144 0 000 10.288z"
            class="icon-foreground" />
        <path
            d="M45.883 15.601l-22.618 5.04-.061-4.16 22.617-5.037.062 4.157zM18.45 51.003a5.144 5.144 0 100-10.288 5.144 5.144 0 000 10.288zM23.204 16.48l.39 29.377M41.072 46.044a5.144 5.144 0 100-10.288 5.144 5.144 0 000 10.288zM45.827 11.523l.39 29.378"
            class="icon-stroke" stroke-linecap="round" stroke-linejoin="round" stroke-miterlimit="10"
            stroke-width=".889" />
    </g>
</svg>
