<?xml version="1.0" encoding="UTF-8"?>
<!DOCTYPE svg>
<svg width="64" height="64" viewBox="0 0 64 64" fill="none" xmlns="http://www.w3.org/2000/svg">
  <style>
    path.icon-background {
      fill: #222222;
    }

    path.icon-foreground {
      fill: #FFFF00;
    }

    @media (prefers-color-scheme: light) {
      path.icon-background {
        fill: #EEEEEE;
      }

      path.icon-foreground {
        fill: #FF0000;
      }
    }
  </style>
  <g clip-path="url(#clip0_1630_26)">
    <path
      d="M44 0H20C8.9543 0 0 8.9543 0 20V44C0 55.0457 8.9543 64 20 64H44C55.0457 64 64 55.0457 64 44V20C64 8.9543 55.0457 0 44 0Z"
      class="icon-background" />
    <g clip-path="url(#clip1_1630_26)">
      <path
        d="M50.24 16.2127C47.68 11.8127 36.1067 10.8793 34.8 10.7593L33.3334 10.666V37.7194C32.9944 37.4453 32.6331 37.2 32.2534 36.986C30.9141 36.312 29.4523 35.916 27.9559 35.8221C26.4596 35.7281 24.9597 35.9381 23.5467 36.4393C18.0534 38.2127 14.52 43.2793 15.6667 47.7327C15.9222 48.6745 16.369 49.5536 16.9792 50.3152C17.5894 51.0768 18.3499 51.7045 19.2134 52.1593C20.6936 52.9491 22.3491 53.3526 24.0267 53.3327C25.3767 53.3316 26.7179 53.1155 28 52.6927C32.9334 51.106 36.2667 46.866 36.08 42.7994V19.3193C37.4134 19.4793 39.24 19.7593 41.1734 20.1727C43.0872 20.4636 44.9259 21.1248 46.5867 22.1193C47.92 22.9993 47.0934 24.6527 47.0267 24.786C46.3894 25.7537 45.6471 26.648 44.8134 27.4527C44.5708 27.6932 44.4299 28.0175 44.4195 28.3589C44.4091 28.7002 44.5301 29.0326 44.7575 29.2873C44.9849 29.5421 45.3014 29.6999 45.6418 29.7282C45.9821 29.7565 46.3203 29.6531 46.5867 29.4393C46.8667 29.1327 54 22.666 50.24 16.2127Z"
        class="icon-foreground" />
    </g>
  </g>
  <defs>
    <clipPath id="clip0_1630_26">
      <rect width="64" height="64" class="icon-background" />
    </clipPath>
    <clipPath id="clip1_1630_26">
      <rect width="48" height="48" class="icon-background" transform="translate(8 8)" />
    </clipPath>
  </defs>
</svg>
