<svg width="64" height="64" viewBox="0 0 64 64" fill="none" xmlns="http://www.w3.org/2000/svg">
<rect width="64" height="64" rx="20" fill="#FFF0F0"/>
<path d="M23.399 20.2772L45.8835 15.6017L45.8212 11.4443L23.2043 16.4808L23.399 20.2772Z" fill="#BC0000"/>
<path d="M18.4497 51.0019C21.2906 51.0019 23.5937 48.6988 23.5937 45.8579C23.5937 43.0169 21.2906 40.7139 18.4497 40.7139C15.6087 40.7139 13.3057 43.0169 13.3057 45.8579C13.3057 48.6988 15.6087 51.0019 18.4497 51.0019Z" fill="#BC0000"/>
<path d="M41.072 46.0439C43.9129 46.0439 46.216 43.7408 46.216 40.8999C46.216 38.0589 43.9129 35.7559 41.072 35.7559C38.231 35.7559 35.928 38.0589 35.928 40.8999C35.928 43.7408 38.231 46.0439 41.072 46.0439Z" fill="#BC0000"/>
<path d="M45.8835 15.6017L23.2657 20.6426L23.2043 16.4808L45.8212 11.4443L45.8835 15.6017Z" stroke="#730000" stroke-width="0.888889" stroke-miterlimit="10" stroke-linecap="round" stroke-linejoin="round"/>
<path d="M18.4497 51.0019C21.2906 51.0019 23.5937 48.6988 23.5937 45.8579C23.5937 43.0169 21.2906 40.7139 18.4497 40.7139C15.6087 40.7139 13.3057 43.0169 13.3057 45.8579C13.3057 48.6988 15.6087 51.0019 18.4497 51.0019Z" stroke="#730000" stroke-width="0.888889" stroke-miterlimit="10" stroke-linecap="round" stroke-linejoin="round"/>
<path d="M23.2043 16.4805L23.5937 45.8574" stroke="#730000" stroke-width="0.888889" stroke-miterlimit="10" stroke-linecap="round" stroke-linejoin="round"/>
<path d="M41.072 46.0439C43.9129 46.0439 46.216 43.7408 46.216 40.8999C46.216 38.0589 43.9129 35.7559 41.072 35.7559C38.231 35.7559 35.928 38.0589 35.928 40.8999C35.928 43.7408 38.231 46.0439 41.072 46.0439Z" stroke="#730000" stroke-width="0.888889" stroke-miterlimit="10" stroke-linecap="round" stroke-linejoin="round"/>
<path d="M45.8267 11.5225L46.216 40.9002" stroke="#730000" stroke-width="0.888889" stroke-miterlimit="10" stroke-linecap="round" stroke-linejoin="round"/>
</svg>
